<mxfile host="app.diagrams.net" modified="2020-08-27T09:26:56.201Z" agent="5.0 (Windows)" etag="FvqjgOwArAzZZxj0aOjP" version="13.6.5" type="github">
  <diagram id="Ff0xHkXNhW8KNn4oLjkb" name="Page-1">
    <mxGraphModel dx="1038" dy="547" grid="1" gridSize="10" guides="1" tooltips="1" connect="1" arrows="1" fold="1" page="1" pageScale="1" pageWidth="1169" pageHeight="827" math="0" shadow="0">
      <root>
        <mxCell id="0" />
        <mxCell id="1" parent="0" />
        <mxCell id="-D6lr62yMq6zQq6dmZYH-2" value="Staff Welfare and Motivation" style="swimlane;html=1;childLayout=stackLayout;resizeParent=1;resizeParentMax=0;horizontal=1;startSize=20;horizontalStack=0;" vertex="1" parent="1">
          <mxGeometry x="110" y="30" width="1070" height="431" as="geometry" />
        </mxCell>
        <mxCell id="-D6lr62yMq6zQq6dmZYH-3" value="HRM" style="swimlane;html=1;startSize=20;horizontal=0;" vertex="1" parent="-D6lr62yMq6zQq6dmZYH-2">
          <mxGeometry y="20" width="1070" height="160" as="geometry" />
        </mxCell>
        <mxCell id="-D6lr62yMq6zQq6dmZYH-11" value="" style="endArrow=classic;html=1;entryX=0.5;entryY=0;entryDx=0;entryDy=0;exitX=0.5;exitY=1;exitDx=0;exitDy=0;" edge="1" parent="-D6lr62yMq6zQq6dmZYH-3" source="-D6lr62yMq6zQq6dmZYH-6" target="-D6lr62yMq6zQq6dmZYH-7">
          <mxGeometry width="50" height="50" relative="1" as="geometry">
            <mxPoint x="470" y="110" as="sourcePoint" />
            <mxPoint x="520" y="60" as="targetPoint" />
          </mxGeometry>
        </mxCell>
        <mxCell id="-D6lr62yMq6zQq6dmZYH-6" value="Start" style="rounded=1;whiteSpace=wrap;html=1;" vertex="1" parent="-D6lr62yMq6zQq6dmZYH-3">
          <mxGeometry x="217" y="10" width="120" height="50" as="geometry" />
        </mxCell>
        <mxCell id="-D6lr62yMq6zQq6dmZYH-29" value="End" style="rounded=1;whiteSpace=wrap;html=1;" vertex="1" parent="-D6lr62yMq6zQq6dmZYH-3">
          <mxGeometry x="992" y="105" width="70" height="30" as="geometry" />
        </mxCell>
        <mxCell id="-D6lr62yMq6zQq6dmZYH-13" value="Prepare report on survey recommendations" style="whiteSpace=wrap;html=1;rounded=0;" vertex="1" parent="-D6lr62yMq6zQq6dmZYH-3">
          <mxGeometry x="400" y="91" width="120" height="60" as="geometry" />
        </mxCell>
        <mxCell id="-D6lr62yMq6zQq6dmZYH-8" value="Survey results" style="shape=parallelogram;perimeter=parallelogramPerimeter;whiteSpace=wrap;html=1;fixedSize=1;" vertex="1" parent="-D6lr62yMq6zQq6dmZYH-3">
          <mxGeometry x="50" y="90" width="120" height="60" as="geometry" />
        </mxCell>
        <mxCell id="-D6lr62yMq6zQq6dmZYH-7" value="Monitor issues affecting staff" style="rounded=0;whiteSpace=wrap;html=1;" vertex="1" parent="-D6lr62yMq6zQq6dmZYH-3">
          <mxGeometry x="217" y="116" width="120" height="60" as="geometry" />
        </mxCell>
        <mxCell id="-D6lr62yMq6zQq6dmZYH-12" value="" style="endArrow=classic;html=1;exitX=1;exitY=0.5;exitDx=0;exitDy=0;entryX=0;entryY=0.5;entryDx=0;entryDy=0;" edge="1" parent="-D6lr62yMq6zQq6dmZYH-3" source="-D6lr62yMq6zQq6dmZYH-8" target="-D6lr62yMq6zQq6dmZYH-7">
          <mxGeometry width="50" height="50" relative="1" as="geometry">
            <mxPoint x="470" y="110" as="sourcePoint" />
            <mxPoint x="520" y="60" as="targetPoint" />
          </mxGeometry>
        </mxCell>
        <mxCell id="-D6lr62yMq6zQq6dmZYH-14" value="" style="edgeStyle=orthogonalEdgeStyle;rounded=0;orthogonalLoop=1;jettySize=auto;html=1;" edge="1" parent="-D6lr62yMq6zQq6dmZYH-3" source="-D6lr62yMq6zQq6dmZYH-7" target="-D6lr62yMq6zQq6dmZYH-13">
          <mxGeometry relative="1" as="geometry" />
        </mxCell>
        <mxCell id="-D6lr62yMq6zQq6dmZYH-17" value="Cost implications" style="shape=parallelogram;perimeter=parallelogramPerimeter;whiteSpace=wrap;html=1;fixedSize=1;" vertex="1" parent="-D6lr62yMq6zQq6dmZYH-3">
          <mxGeometry x="559" y="91" width="120" height="60" as="geometry" />
        </mxCell>
        <mxCell id="-D6lr62yMq6zQq6dmZYH-19" value="" style="edgeStyle=orthogonalEdgeStyle;rounded=0;orthogonalLoop=1;jettySize=auto;html=1;entryX=1;entryY=0.5;entryDx=0;entryDy=0;" edge="1" parent="-D6lr62yMq6zQq6dmZYH-3" source="-D6lr62yMq6zQq6dmZYH-17" target="-D6lr62yMq6zQq6dmZYH-13">
          <mxGeometry relative="1" as="geometry">
            <mxPoint x="469" y="121" as="targetPoint" />
          </mxGeometry>
        </mxCell>
        <mxCell id="-D6lr62yMq6zQq6dmZYH-4" value="Staff" style="swimlane;html=1;startSize=20;horizontal=0;" vertex="1" parent="-D6lr62yMq6zQq6dmZYH-2">
          <mxGeometry y="180" width="1070" height="131" as="geometry" />
        </mxCell>
        <mxCell id="-D6lr62yMq6zQq6dmZYH-15" value="Review recommendation and plans" style="whiteSpace=wrap;html=1;rounded=0;" vertex="1" parent="-D6lr62yMq6zQq6dmZYH-4">
          <mxGeometry x="400" y="161" width="120" height="60" as="geometry" />
        </mxCell>
        <mxCell id="-D6lr62yMq6zQq6dmZYH-24" value="yes" style="text;html=1;strokeColor=none;fillColor=none;align=center;verticalAlign=middle;whiteSpace=wrap;rounded=0;" vertex="1" parent="-D6lr62yMq6zQq6dmZYH-4">
          <mxGeometry x="690" y="51" width="40" height="20" as="geometry" />
        </mxCell>
        <mxCell id="-D6lr62yMq6zQq6dmZYH-5" value="CEO" style="swimlane;html=1;startSize=20;horizontal=0;" vertex="1" parent="-D6lr62yMq6zQq6dmZYH-2">
          <mxGeometry y="311" width="1070" height="120" as="geometry" />
        </mxCell>
        <mxCell id="-D6lr62yMq6zQq6dmZYH-16" value="" style="edgeStyle=orthogonalEdgeStyle;rounded=0;orthogonalLoop=1;jettySize=auto;html=1;" edge="1" parent="-D6lr62yMq6zQq6dmZYH-2" source="-D6lr62yMq6zQq6dmZYH-13" target="-D6lr62yMq6zQq6dmZYH-15">
          <mxGeometry relative="1" as="geometry" />
        </mxCell>
        <mxCell id="-D6lr62yMq6zQq6dmZYH-23" value="" style="edgeStyle=orthogonalEdgeStyle;rounded=0;orthogonalLoop=1;jettySize=auto;html=1;" edge="1" parent="1" source="-D6lr62yMq6zQq6dmZYH-20" target="-D6lr62yMq6zQq6dmZYH-22">
          <mxGeometry relative="1" as="geometry" />
        </mxCell>
        <mxCell id="-D6lr62yMq6zQq6dmZYH-32" value="" style="edgeStyle=orthogonalEdgeStyle;rounded=0;orthogonalLoop=1;jettySize=auto;html=1;entryX=0.5;entryY=1;entryDx=0;entryDy=0;" edge="1" parent="1" source="-D6lr62yMq6zQq6dmZYH-20" target="-D6lr62yMq6zQq6dmZYH-29">
          <mxGeometry relative="1" as="geometry">
            <mxPoint x="870" y="401" as="targetPoint" />
          </mxGeometry>
        </mxCell>
        <mxCell id="-D6lr62yMq6zQq6dmZYH-20" value="Approved?" style="rhombus;whiteSpace=wrap;html=1;rounded=0;" vertex="1" parent="1">
          <mxGeometry x="730" y="361" width="80" height="80" as="geometry" />
        </mxCell>
        <mxCell id="-D6lr62yMq6zQq6dmZYH-21" value="" style="edgeStyle=orthogonalEdgeStyle;rounded=0;orthogonalLoop=1;jettySize=auto;html=1;" edge="1" parent="1" source="-D6lr62yMq6zQq6dmZYH-15" target="-D6lr62yMq6zQq6dmZYH-20">
          <mxGeometry relative="1" as="geometry" />
        </mxCell>
        <mxCell id="-D6lr62yMq6zQq6dmZYH-27" value="" style="edgeStyle=orthogonalEdgeStyle;rounded=0;orthogonalLoop=1;jettySize=auto;html=1;" edge="1" parent="1" source="-D6lr62yMq6zQq6dmZYH-22" target="-D6lr62yMq6zQq6dmZYH-26">
          <mxGeometry relative="1" as="geometry" />
        </mxCell>
        <mxCell id="-D6lr62yMq6zQq6dmZYH-22" value="Implement plan" style="whiteSpace=wrap;html=1;rounded=0;" vertex="1" parent="1">
          <mxGeometry x="809" y="140" width="120" height="60" as="geometry" />
        </mxCell>
        <mxCell id="-D6lr62yMq6zQq6dmZYH-26" value="Evaluate effects of plan implementation" style="whiteSpace=wrap;html=1;rounded=0;" vertex="1" parent="1">
          <mxGeometry x="980" y="140" width="90" height="60" as="geometry" />
        </mxCell>
        <mxCell id="-D6lr62yMq6zQq6dmZYH-30" value="" style="edgeStyle=orthogonalEdgeStyle;rounded=0;orthogonalLoop=1;jettySize=auto;html=1;exitX=1;exitY=0.5;exitDx=0;exitDy=0;entryX=0;entryY=0.5;entryDx=0;entryDy=0;" edge="1" parent="1" source="-D6lr62yMq6zQq6dmZYH-26" target="-D6lr62yMq6zQq6dmZYH-29">
          <mxGeometry relative="1" as="geometry">
            <mxPoint x="1040" y="70" as="sourcePoint" />
            <mxPoint x="1091" y="70" as="targetPoint" />
          </mxGeometry>
        </mxCell>
      </root>
    </mxGraphModel>
  </diagram>
</mxfile>
